<svg id="a9b01099-fffc-4c37-8759-bfe36c64a366" data-name="Capa 1" xmlns="http://www.w3.org/2000/svg" viewBox="0 0 206.38 141.13"><defs><style>.b12115ae-a8e4-4d7b-9008-0a7ebd0f5198{fill:none;stroke:#ff5b00;stroke-miterlimit:10;stroke-width:3px;}.a991a6ff-49ac-46f2-a7bd-00a134b614ce{fill:#ff5b00;}</style></defs><title>digital-design</title><path class="b12115ae-a8e4-4d7b-9008-0a7ebd0f5198" d="M214.37,122.33A20.35,20.35,0,0,1,194,142.67H31.33A20.34,20.34,0,0,1,11,122.33H25.4V17.25A12.72,12.72,0,0,1,38.11,4.54H187.26A12.72,12.72,0,0,1,200,17.25V122.33Z" transform="translate(-9.5 -3.04)"/><path class="a991a6ff-49ac-46f2-a7bd-00a134b614ce" d="M185,7.54a12,12,0,0,1,12,12V120.18H28.4V19.54a12,12,0,0,1,12-12H185m0-3H40.4a15,15,0,0,0-15,15V123.18H200V19.54a15,15,0,0,0-15-15Z" transform="translate(-9.5 -3.04)"/><path class="b12115ae-a8e4-4d7b-9008-0a7ebd0f5198" d="M187.26,5.39a11.87,11.87,0,0,1,11.86,11.86V122.33H26.25V17.25A11.87,11.87,0,0,1,38.11,5.39H187.26m0-.85H38.11A12.71,12.71,0,0,0,25.4,17.25V123.18H200V17.25A12.71,12.71,0,0,0,187.26,4.54Z" transform="translate(-9.5 -3.04)"/><path class="b12115ae-a8e4-4d7b-9008-0a7ebd0f5198" d="M197.47,142.67H27.9A16.9,16.9,0,0,1,11,125.77v-3.44H214.37v3.44A16.9,16.9,0,0,1,197.47,142.67Z" transform="translate(-9.5 -3.04)"/><path class="b12115ae-a8e4-4d7b-9008-0a7ebd0f5198" d="M211.65,124.87A17.83,17.83,0,0,1,194,140.13H31.33a17.82,17.82,0,0,1-17.61-15.26H211.65m2.72-2.54H11a20.34,20.34,0,0,0,20.33,20.34H194a20.34,20.34,0,0,0,20.34-20.34Z" transform="translate(-9.5 -3.04)"/><rect class="b12115ae-a8e4-4d7b-9008-0a7ebd0f5198" x="26.92" y="16.75" width="150.84" height="93.21" rx="7.5"/><path class="b12115ae-a8e4-4d7b-9008-0a7ebd0f5198" d="M180.9,22.34a3.82,3.82,0,0,1,3.81,3.81v80.5a3.82,3.82,0,0,1-3.81,3.82H42.77A3.82,3.82,0,0,1,39,106.65V26.15a3.82,3.82,0,0,1,3.81-3.81H180.9m0-2.54H42.77a6.35,6.35,0,0,0-6.35,6.35v80.5A6.35,6.35,0,0,0,42.77,113H180.9a6.36,6.36,0,0,0,6.36-6.36V26.15a6.35,6.35,0,0,0-6.36-6.35Z" transform="translate(-9.5 -3.04)"/><rect class="b12115ae-a8e4-4d7b-9008-0a7ebd0f5198" x="20.99" y="129.46" width="20.34" height="2.54"/><path class="b12115ae-a8e4-4d7b-9008-0a7ebd0f5198" d="M50.4,132.92v1.7H30.91v-1.7H50.4m.42-.42H30.49V135H50.82V132.5Z" transform="translate(-9.5 -3.04)"/><path class="a991a6ff-49ac-46f2-a7bd-00a134b614ce" d="M60.57,130a3,3,0,1,0,3,3,3,3,0,0,0-3-3Z" transform="translate(-9.5 -3.04)"/><path class="b12115ae-a8e4-4d7b-9008-0a7ebd0f5198" d="M60.57,130.38A2.55,2.55,0,1,1,58,132.92a2.54,2.54,0,0,1,2.54-2.54m0-.42a3,3,0,1,0,3,3,3,3,0,0,0-3-3Z" transform="translate(-9.5 -3.04)"/><path class="b12115ae-a8e4-4d7b-9008-0a7ebd0f5198" d="M181.26,19.8H42.42a6,6,0,0,0-6,6v6.71H187.26V25.8A6,6,0,0,0,181.26,19.8Z" transform="translate(-9.5 -3.04)"/><path class="b12115ae-a8e4-4d7b-9008-0a7ebd0f5198" d="M182.17,22.34a2.54,2.54,0,0,1,2.54,2.54V30H39V24.88a2.54,2.54,0,0,1,2.54-2.54H182.17m0-2.54H41.5a5.07,5.07,0,0,0-5.08,5.08v7.63H187.26V24.88a5.08,5.08,0,0,0-5.09-5.08Z" transform="translate(-9.5 -3.04)"/><circle class="b12115ae-a8e4-4d7b-9008-0a7ebd0f5198" cx="170.98" cy="23.53" r="2.54"/><path class="b12115ae-a8e4-4d7b-9008-0a7ebd0f5198" d="M180.48,24.46a2.12,2.12,0,1,1-2.12,2.11,2.12,2.12,0,0,1,2.12-2.11m0-.43A2.55,2.55,0,1,0,183,26.57,2.55,2.55,0,0,0,180.48,24Z" transform="translate(-9.5 -3.04)"/><circle class="b12115ae-a8e4-4d7b-9008-0a7ebd0f5198" cx="164.2" cy="23.53" r="2.54"/><path class="b12115ae-a8e4-4d7b-9008-0a7ebd0f5198" d="M173.7,24.46a2.12,2.12,0,1,1-2.12,2.11,2.12,2.12,0,0,1,2.12-2.11m0-.43a2.55,2.55,0,1,0,2.54,2.54A2.55,2.55,0,0,0,173.7,24Z" transform="translate(-9.5 -3.04)"/><circle class="b12115ae-a8e4-4d7b-9008-0a7ebd0f5198" cx="157.42" cy="23.53" r="2.54"/><path class="b12115ae-a8e4-4d7b-9008-0a7ebd0f5198" d="M166.92,24.46a2.12,2.12,0,1,1-2.12,2.11,2.12,2.12,0,0,1,2.12-2.11m0-.43a2.55,2.55,0,1,0,2.54,2.54A2.54,2.54,0,0,0,166.92,24Z" transform="translate(-9.5 -3.04)"/><path class="a991a6ff-49ac-46f2-a7bd-00a134b614ce" d="M154.46,33.11v77h-85v-77h85m3-3h-91v83h91v-83Z" transform="translate(-9.5 -3.04)"/><path class="a991a6ff-49ac-46f2-a7bd-00a134b614ce" d="M148.46,39.11v64h-73v-64h73m3-3h-79v70h79v-70Z" transform="translate(-9.5 -3.04)"/><path class="a991a6ff-49ac-46f2-a7bd-00a134b614ce" d="M96,53c.1,0,.34.17.63.52a89.74,89.74,0,0,1,8,12.14c3.45,5.91,5.94,10.19,10.19,10.19a5.87,5.87,0,0,0,2.2-.44c2.69-1.08,4.59-4.24,6.8-7.91,1.27-2.12,3.92-6.51,5.13-6.66,0,0,.54.14,1.5,1.51,4.75,6.78,11,17.7,14.37,23.78H77.73c1.37-3.73,3.63-9.57,6.29-15.35C92.07,53.19,96,53,96,53m0-3c-9.24,0-22.55,39.13-22.55,39.13H150s-10-18.5-17-28.5c-1.38-2-2.69-2.79-3.93-2.79C124,57.82,120,71,116,72.61a3.06,3.06,0,0,1-1.08.22c-4.4,0-7.59-11-15.92-21.22A3.77,3.77,0,0,0,96,50Z" transform="translate(-9.5 -3.04)"/><path class="a991a6ff-49ac-46f2-a7bd-00a134b614ce" d="M116,50.11a4.5,4.5,0,1,1-4.5,4.5,4.49,4.49,0,0,1,4.5-4.5m0-3a7.5,7.5,0,1,0,7.5,7.5,7.51,7.51,0,0,0-7.5-7.5Z" transform="translate(-9.5 -3.04)"/></svg>