<svg id="ad1537ea-ab15-4425-ae31-1d70e9470aeb" data-name="Capa 1" xmlns="http://www.w3.org/2000/svg" viewBox="0 0 221.21 141.13"><defs><style>.a6a620b3-a84f-40d4-8abe-67486dd0a81a{fill:none;}.a6a620b3-a84f-40d4-8abe-67486dd0a81a,.fabcc609-83f0-403a-9498-0c4379f9204d{stroke:#ff5b00;stroke-miterlimit:10;stroke-width:3px;}.b6d135a2-fe55-42d1-986b-9ce29b519bc1{fill:#ff5b00;}.fabcc609-83f0-403a-9498-0c4379f9204d{fill:#fff;}</style></defs><title>ui-design</title><path class="a6a620b3-a84f-40d4-8abe-67486dd0a81a" d="M207,123.26a20.33,20.33,0,0,1-20.33,20.34H23.92A20.34,20.34,0,0,1,3.58,123.26H18V18.18A12.72,12.72,0,0,1,30.7,5.47H179.84a12.72,12.72,0,0,1,12.71,12.71V123.26Z" transform="translate(-2.08 -3.97)"/><path class="b6d135a2-fe55-42d1-986b-9ce29b519bc1" d="M177.55,8.47a12,12,0,0,1,12,12V121.11H21V20.47a12,12,0,0,1,12-12H177.55m0-3H33a15,15,0,0,0-15,15V124.11H192.55V20.47a15,15,0,0,0-15-15Z" transform="translate(-2.08 -3.97)"/><path class="a6a620b3-a84f-40d4-8abe-67486dd0a81a" d="M179.84,6.32A11.87,11.87,0,0,1,191.7,18.18V123.26H18.83V18.18A11.88,11.88,0,0,1,30.7,6.32H179.84m0-.85H30.7A12.72,12.72,0,0,0,18,18.18V124.11H192.55V18.18A12.71,12.71,0,0,0,179.84,5.47Z" transform="translate(-2.08 -3.97)"/><path class="a6a620b3-a84f-40d4-8abe-67486dd0a81a" d="M190.06,143.6H20.48a16.9,16.9,0,0,1-16.9-16.9v-3.44H207v3.44A16.9,16.9,0,0,1,190.06,143.6Z" transform="translate(-2.08 -3.97)"/><path class="a6a620b3-a84f-40d4-8abe-67486dd0a81a" d="M204.23,125.8a17.82,17.82,0,0,1-17.61,15.25H23.92A17.83,17.83,0,0,1,6.3,125.8H204.23m2.72-2.54H3.58A20.34,20.34,0,0,0,23.92,143.6h162.7A20.34,20.34,0,0,0,207,123.26Z" transform="translate(-2.08 -3.97)"/><rect class="a6a620b3-a84f-40d4-8abe-67486dd0a81a" x="26.92" y="16.75" width="150.84" height="93.21" rx="7.5"/><path class="a6a620b3-a84f-40d4-8abe-67486dd0a81a" d="M173.48,23.27a3.82,3.82,0,0,1,3.82,3.81v80.5a3.83,3.83,0,0,1-3.82,3.82H35.36a3.83,3.83,0,0,1-3.82-3.82V27.08a3.82,3.82,0,0,1,3.82-3.81H173.48m0-2.55H35.36A6.36,6.36,0,0,0,29,27.08v80.5a6.36,6.36,0,0,0,6.36,6.36H173.48a6.36,6.36,0,0,0,6.36-6.36V27.08a6.36,6.36,0,0,0-6.36-6.36Z" transform="translate(-2.08 -3.97)"/><rect class="a6a620b3-a84f-40d4-8abe-67486dd0a81a" x="20.99" y="129.46" width="20.34" height="2.54"/><path class="a6a620b3-a84f-40d4-8abe-67486dd0a81a" d="M43,133.85v1.7H23.49v-1.7H43m.43-.42H23.07V136H43.41v-2.54Z" transform="translate(-2.08 -3.97)"/><path class="b6d135a2-fe55-42d1-986b-9ce29b519bc1" d="M53.15,130.89a3,3,0,1,0,3,3,3,3,0,0,0-3-3Z" transform="translate(-2.08 -3.97)"/><path class="a6a620b3-a84f-40d4-8abe-67486dd0a81a" d="M53.15,131.31a2.54,2.54,0,1,1-2.54,2.54,2.54,2.54,0,0,1,2.54-2.54m0-.42a3,3,0,1,0,3,3,3,3,0,0,0-3-3Z" transform="translate(-2.08 -3.97)"/><path class="a6a620b3-a84f-40d4-8abe-67486dd0a81a" d="M173.84,20.72H35a6,6,0,0,0-6,6v6.71H179.84V26.72A6,6,0,0,0,173.84,20.72Z" transform="translate(-2.08 -3.97)"/><circle class="a6a620b3-a84f-40d4-8abe-67486dd0a81a" cx="170.98" cy="23.53" r="2.54"/><path class="a6a620b3-a84f-40d4-8abe-67486dd0a81a" d="M173.06,25.38a2.12,2.12,0,1,1-2.12,2.12,2.12,2.12,0,0,1,2.12-2.12m0-.42a2.54,2.54,0,1,0,2.54,2.54A2.54,2.54,0,0,0,173.06,25Z" transform="translate(-2.08 -3.97)"/><circle class="a6a620b3-a84f-40d4-8abe-67486dd0a81a" cx="164.2" cy="23.53" r="2.54"/><path class="a6a620b3-a84f-40d4-8abe-67486dd0a81a" d="M166.28,25.38a2.12,2.12,0,1,1-2.12,2.12,2.12,2.12,0,0,1,2.12-2.12m0-.42a2.54,2.54,0,1,0,2.54,2.54A2.54,2.54,0,0,0,166.28,25Z" transform="translate(-2.08 -3.97)"/><circle class="a6a620b3-a84f-40d4-8abe-67486dd0a81a" cx="157.42" cy="23.53" r="2.54"/><path class="a6a620b3-a84f-40d4-8abe-67486dd0a81a" d="M159.5,25.38a2.12,2.12,0,1,1-2.12,2.12,2.12,2.12,0,0,1,2.12-2.12m0-.42A2.54,2.54,0,1,0,162,27.5,2.54,2.54,0,0,0,159.5,25Z" transform="translate(-2.08 -3.97)"/><path class="fabcc609-83f0-403a-9498-0c4379f9204d" d="M166.63,67,205.88,25.6a10.21,10.21,0,0,1,3.28-2.33l4.23-1.85c2.49-1.09,4.91-.83,6.21.65h0c1.12,1.29,1.22,3.33.25,5.4l-2.43,5.16a9.94,9.94,0,0,1-2.76,3.44l-44,35.15c-1.71,1.37-3.82,1.54-4.81.4l-.09-.09C164.86,70.45,165.22,68.53,166.63,67Z" transform="translate(-2.08 -3.97)"/><path class="fabcc609-83f0-403a-9498-0c4379f9204d" d="M167.73,73.65a3.62,3.62,0,0,1-2.8-1.19l-.09-.1c-1.39-1.59-1-4.2.87-6.2L205,24.72a11.5,11.5,0,0,1,3.69-2.61l4.23-1.85c3-1.32,6-.93,7.67,1,1.48,1.69,1.64,4.23.45,6.78l-2.43,5.16a11.06,11.06,0,0,1-3.12,3.89l-44,35.16A6.15,6.15,0,0,1,167.73,73.65ZM216.37,22a6.24,6.24,0,0,0-2.47.57l-4.23,1.85a9,9,0,0,0-2.87,2L167.55,67.91c-1,1.09-1.21,2.29-.79,2.78l.09.1c.45.52,1.82.43,3.05-.56l44-35.15a8.66,8.66,0,0,0,2.41-3l2.42-5.16c.75-1.59.73-3.13-.05-4A2.94,2.94,0,0,0,216.37,22Z" transform="translate(-2.08 -3.97)"/><path class="a6a620b3-a84f-40d4-8abe-67486dd0a81a" d="M162.28,79c2.92-5.05-2.72-10.86-7.76-7.92a14,14,0,0,0-3,2.49c-7.4,7.8-14,9.19-14,9.19S155,91.58,162.28,79Z" transform="translate(-2.08 -3.97)"/><path class="a6a620b3-a84f-40d4-8abe-67486dd0a81a" d="M149.9,87a33.47,33.47,0,0,1-13-3.09l-3.26-1.63,3.57-.75c.06,0,6.4-1.45,13.38-8.83A15.74,15.74,0,0,1,153.88,70a6.74,6.74,0,0,1,8.34,1.09,7,7,0,0,1,1.17,8.56h0C160.09,85.35,154.85,87,149.9,87ZM141,82.86c5.07,1.8,15.29,4.06,20.22-4.49h0a4.44,4.44,0,0,0-.76-5.48,4.2,4.2,0,0,0-5.26-.7,12.71,12.71,0,0,0-2.76,2.26A36.69,36.69,0,0,1,141,82.86Z" transform="translate(-2.08 -3.97)"/><path class="a6a620b3-a84f-40d4-8abe-67486dd0a81a" d="M107.39,57.42a3.29,3.29,0,0,1,3.28,3.29V78.43a10.74,10.74,0,0,1-3.27,8.27q-3.27,3-8.94,3c-3.73,0-6.68-1-8.87-3a10.55,10.55,0,0,1-3.35-8.12v-18a3.29,3.29,0,0,1,3.28-3.29h0a3.3,3.3,0,0,1,3.29,3.29V78.47A6.09,6.09,0,0,0,94.31,83a5.78,5.78,0,0,0,4.15,1.43q5.54,0,5.62-5.83V60.71a3.3,3.3,0,0,1,3.29-3.29Z" transform="translate(-2.08 -3.97)"/><path class="a6a620b3-a84f-40d4-8abe-67486dd0a81a" d="M119.76,89.31h0A3.28,3.28,0,0,1,116.48,86V60.71a3.29,3.29,0,0,1,3.28-3.29h0a3.29,3.29,0,0,1,3.29,3.29V86A3.29,3.29,0,0,1,119.76,89.31Z" transform="translate(-2.08 -3.97)"/></svg>