<svg id="a22aa6e5-6d19-482e-8c9d-45d8613aef53" data-name="Capa 1" xmlns="http://www.w3.org/2000/svg" viewBox="0 0 221.21 141.13"><defs><style>.a41b3ecd-9ebd-4a40-b47b-b667491a6470{fill:none;}.a41b3ecd-9ebd-4a40-b47b-b667491a6470,.b8b3807a-7e3c-46b8-8700-4d4bbf320582{stroke:#ff5b00;stroke-miterlimit:10;stroke-width:3px;}.ac34facc-87d8-4224-a914-6134fc07c511{fill:#ff5b00;}.b8b3807a-7e3c-46b8-8700-4d4bbf320582{fill:#fff;}</style></defs><title>web-design</title><path class="a41b3ecd-9ebd-4a40-b47b-b667491a6470" d="M207.58,123a20.31,20.31,0,0,1-20.33,20.34H24.55A20.34,20.34,0,0,1,4.21,123h14.4V17.89A12.72,12.72,0,0,1,31.32,5.18H180.47a12.72,12.72,0,0,1,12.71,12.71V123Z" transform="translate(-2.71 -3.68)"/><path class="ac34facc-87d8-4224-a914-6134fc07c511" d="M178.18,8.18a12,12,0,0,1,12,12V120.81H21.61V20.18a12,12,0,0,1,12-12H178.18m0-3H33.61a15,15,0,0,0-15,15V123.81H193.18V20.18a15,15,0,0,0-15-15Z" transform="translate(-2.71 -3.68)"/><path class="a41b3ecd-9ebd-4a40-b47b-b667491a6470" d="M180.47,6a11.88,11.88,0,0,1,11.86,11.87V123H19.46V17.89A11.88,11.88,0,0,1,31.32,6H180.47m0-.84H31.32A12.71,12.71,0,0,0,18.61,17.89V123.81H193.18V17.89A12.71,12.71,0,0,0,180.47,5.18Z" transform="translate(-2.71 -3.68)"/><path class="a41b3ecd-9ebd-4a40-b47b-b667491a6470" d="M190.68,143.3H21.11a16.89,16.89,0,0,1-16.9-16.9V123H207.58v3.44A16.89,16.89,0,0,1,190.68,143.3Z" transform="translate(-2.71 -3.68)"/><path class="a41b3ecd-9ebd-4a40-b47b-b667491a6470" d="M204.86,125.51a17.82,17.82,0,0,1-17.61,15.25H24.55A17.83,17.83,0,0,1,6.93,125.51H204.86m2.72-2.55H4.21A20.33,20.33,0,0,0,24.55,143.3h162.7A20.33,20.33,0,0,0,207.58,123Z" transform="translate(-2.71 -3.68)"/><rect class="a41b3ecd-9ebd-4a40-b47b-b667491a6470" x="26.92" y="16.75" width="150.84" height="93.21" rx="7.5"/><path class="a41b3ecd-9ebd-4a40-b47b-b667491a6470" d="M174.11,23a3.82,3.82,0,0,1,3.81,3.82v80.5a3.82,3.82,0,0,1-3.81,3.81H36a3.82,3.82,0,0,1-3.82-3.81V26.79A3.82,3.82,0,0,1,36,23H174.11m0-2.54H36a6.36,6.36,0,0,0-6.36,6.36v80.5A6.35,6.35,0,0,0,36,113.64H174.11a6.35,6.35,0,0,0,6.36-6.35V26.79a6.36,6.36,0,0,0-6.36-6.36Z" transform="translate(-2.71 -3.68)"/><rect class="a41b3ecd-9ebd-4a40-b47b-b667491a6470" x="20.99" y="129.46" width="20.34" height="2.54"/><path class="a41b3ecd-9ebd-4a40-b47b-b667491a6470" d="M43.61,133.56v1.69H24.12v-1.69H43.61m.43-.43H23.7v2.55H44v-2.55Z" transform="translate(-2.71 -3.68)"/><path class="ac34facc-87d8-4224-a914-6134fc07c511" d="M53.78,130.59a3,3,0,1,0,3,3,3,3,0,0,0-3-3Z" transform="translate(-2.71 -3.68)"/><path class="a41b3ecd-9ebd-4a40-b47b-b667491a6470" d="M53.78,131a2.54,2.54,0,1,1-2.54,2.54A2.54,2.54,0,0,1,53.78,131m0-.43a3,3,0,1,0,3,3,3,3,0,0,0-3-3Z" transform="translate(-2.71 -3.68)"/><path class="a41b3ecd-9ebd-4a40-b47b-b667491a6470" d="M174.47,20.43H35.63a6,6,0,0,0-6,6v6.71H180.47V26.43A6,6,0,0,0,174.47,20.43Z" transform="translate(-2.71 -3.68)"/><path class="a41b3ecd-9ebd-4a40-b47b-b667491a6470" d="M175.38,23a2.54,2.54,0,0,1,2.54,2.54V30.6H32.17V25.51A2.54,2.54,0,0,1,34.71,23H175.38m0-2.54H34.71a5.09,5.09,0,0,0-5.08,5.08v7.63H180.47V25.51a5.09,5.09,0,0,0-5.09-5.08Z" transform="translate(-2.71 -3.68)"/><circle class="a41b3ecd-9ebd-4a40-b47b-b667491a6470" cx="170.98" cy="23.53" r="2.54"/><path class="a41b3ecd-9ebd-4a40-b47b-b667491a6470" d="M173.69,25.09a2.12,2.12,0,1,1-2.12,2.12,2.12,2.12,0,0,1,2.12-2.12m0-.42a2.54,2.54,0,1,0,2.54,2.54,2.53,2.53,0,0,0-2.54-2.54Z" transform="translate(-2.71 -3.68)"/><circle class="a41b3ecd-9ebd-4a40-b47b-b667491a6470" cx="164.2" cy="23.53" r="2.54"/><path class="a41b3ecd-9ebd-4a40-b47b-b667491a6470" d="M166.91,25.09a2.12,2.12,0,1,1-2.12,2.12,2.12,2.12,0,0,1,2.12-2.12m0-.42a2.54,2.54,0,1,0,2.54,2.54,2.53,2.53,0,0,0-2.54-2.54Z" transform="translate(-2.71 -3.68)"/><circle class="a41b3ecd-9ebd-4a40-b47b-b667491a6470" cx="157.42" cy="23.53" r="2.54"/><path class="a41b3ecd-9ebd-4a40-b47b-b667491a6470" d="M160.13,25.09A2.12,2.12,0,1,1,158,27.21a2.12,2.12,0,0,1,2.12-2.12m0-.42a2.54,2.54,0,1,0,2.54,2.54,2.54,2.54,0,0,0-2.54-2.54Z" transform="translate(-2.71 -3.68)"/><path class="b8b3807a-7e3c-46b8-8700-4d4bbf320582" d="M167.26,66.74,206.51,25.3A10.33,10.33,0,0,1,209.79,23L214,21.13c2.49-1.09,4.91-.84,6.21.65h0c1.12,1.29,1.22,3.32.24,5.39l-2.42,5.17a9.94,9.94,0,0,1-2.76,3.44l-44,35.15c-1.71,1.36-3.82,1.54-4.81.4l-.09-.1C165.49,70.15,165.85,68.24,167.26,66.74Z" transform="translate(-2.71 -3.68)"/><path class="b8b3807a-7e3c-46b8-8700-4d4bbf320582" d="M168.36,73.36a3.62,3.62,0,0,1-2.8-1.2l-.09-.1c-1.39-1.59-1-4.19.87-6.19l39.25-41.44a11.35,11.35,0,0,1,3.69-2.61L213.51,20c3-1.31,6-.93,7.67,1,1.48,1.69,1.64,4.22.44,6.77l-2.42,5.17a11.15,11.15,0,0,1-3.12,3.89l-44,35.15A6.11,6.11,0,0,1,168.36,73.36ZM217,21.73a6.22,6.22,0,0,0-2.47.56l-4.23,1.85a9,9,0,0,0-2.87,2L168.18,67.62c-1,1.09-1.21,2.29-.79,2.78l.09.1c.45.52,1.82.42,3.05-.56l44-35.16a8.72,8.72,0,0,0,2.41-3l2.42-5.17c.75-1.58.73-3.13,0-4A2.91,2.91,0,0,0,217,21.73Z" transform="translate(-2.71 -3.68)"/><path class="a41b3ecd-9ebd-4a40-b47b-b667491a6470" d="M162.91,78.71c2.92-5-2.72-10.86-7.76-7.92a14,14,0,0,0-3,2.49c-7.4,7.8-14.05,9.2-14.05,9.2S155.66,91.28,162.91,78.71Z" transform="translate(-2.71 -3.68)"/><path class="a41b3ecd-9ebd-4a40-b47b-b667491a6470" d="M150.53,86.71a33.47,33.47,0,0,1-13-3.09L134.23,82l3.57-.75c.06,0,6.4-1.45,13.38-8.82a15.74,15.74,0,0,1,3.33-2.71,6.74,6.74,0,0,1,8.34,1.09A7,7,0,0,1,164,79.35h0C160.72,85.06,155.48,86.71,150.53,86.71Zm-8.94-4.14c5.07,1.79,15.29,4.05,20.22-4.49h0a4.46,4.46,0,0,0-.76-5.49,4.22,4.22,0,0,0-5.26-.7A12.84,12.84,0,0,0,153,74.16,36.69,36.69,0,0,1,141.59,82.57Z" transform="translate(-2.71 -3.68)"/><path class="a41b3ecd-9ebd-4a40-b47b-b667491a6470" d="M87.24,67,95,69.73a2.31,2.31,0,0,1,1.55,2.18h0a2.31,2.31,0,0,1-3.22,2.14L82.11,69.31a2.32,2.32,0,0,1-1.41-2.14V65.91a2.34,2.34,0,0,1,1.41-2.14L93.3,59a2.32,2.32,0,0,1,3.22,2.14h0A2.31,2.31,0,0,1,95,63.36l-7.76,2.79A.45.45,0,0,0,87.24,67Z" transform="translate(-2.71 -3.68)"/><path class="a41b3ecd-9ebd-4a40-b47b-b667491a6470" d="M101.23,80.23h0a1.88,1.88,0,0,1-1.78-2.47L108,52.45a1.87,1.87,0,0,1,1.78-1.27h0a1.87,1.87,0,0,1,1.77,2.47L103,79A1.87,1.87,0,0,1,101.23,80.23Z" transform="translate(-2.71 -3.68)"/><path class="a41b3ecd-9ebd-4a40-b47b-b667491a6470" d="M124.62,66.11l-8-2.78a2.3,2.3,0,0,1-1.54-2.18h0a2.31,2.31,0,0,1,3.2-2.12l11.39,4.77a2.32,2.32,0,0,1,1.41,2.13v1.25a2.29,2.29,0,0,1-1.41,2.12l-11.39,4.79a2.31,2.31,0,0,1-3.2-2.13v0a2.31,2.31,0,0,1,1.53-2.18l8-2.82A.44.44,0,0,0,124.62,66.11Z" transform="translate(-2.71 -3.68)"/></svg>